<svg width="40" height="40" viewBox="0 0 40 40" fill="none" xmlns="http://www.w3.org/2000/svg">
<path d="M25.112 13.0149C26.7421 10.1916 25.7747 6.58141 22.9514 4.95136C20.128 3.32131 16.5179 4.28865 14.8878 7.11199L2.95148 27.7863C1.32143 30.6097 2.28877 34.2198 5.11211 35.8499C7.93544 37.4799 11.5456 36.5126 13.1757 33.6893L25.112 13.0149Z" fill="#FABC04"/>
<path d="M14.0244 30.6992C14.0244 33.9773 11.367 36.6348 8.08887 36.6348C4.81076 36.6348 2.15332 33.9773 2.15332 30.6992C2.15332 27.4211 4.81076 24.7637 8.08887 24.7637C11.367 24.7637 14.0244 27.4211 14.0244 30.6992Z" fill="#34A852"/>
<path d="M14.889 13.0149C13.2589 10.1916 14.2263 6.58141 17.0496 4.95136C19.8729 3.32131 23.4831 4.28865 25.1132 7.11199L37.0495 27.7863C38.6796 30.6097 37.7122 34.2198 34.8889 35.8499C32.0655 37.4799 28.4554 36.5126 26.8253 33.6893L14.889 13.0149Z" fill="#3C8BD9"/>
</svg>
