<svg width="300" height="135" viewBox="0 0 300 135" fill="none" xmlns="http://www.w3.org/2000/svg">
<path fill-rule="evenodd" clip-rule="evenodd" d="M91.6191 54.1297L95.2839 98.7064L118.781 36.584L91.6191 54.1297Z" fill="black" fill-opacity="0.6"/>
<path fill-rule="evenodd" clip-rule="evenodd" d="M89.558 51.3013L64 48.0029L117.979 36L89.558 51.3013Z" fill="black" fill-opacity="0.6"/>
<path fill-rule="evenodd" clip-rule="evenodd" d="M88.4731 54.423L94.1421 98.9996L83.5104 58.6582L64.7856 49.29L88.4731 54.423Z" fill="black" fill-opacity="0.6"/>
<path d="M117.979 78.4293L128.439 56.5898H130.653L141.227 78.4293H138.345L135.444 72.5742H123.648L120.823 78.4293H117.979ZM124.87 69.998H134.28L129.565 60.2395L124.87 69.998Z" fill="black" fill-opacity="0.6"/>
<path d="M153.634 56.5888C155.119 56.5204 156.603 56.7543 157.998 57.277C159.394 57.7996 160.675 58.6006 161.765 59.6334C162.793 60.6601 163.6 61.8957 164.132 63.2604C164.665 64.6252 164.912 66.0889 164.858 67.5573C164.91 69.0028 164.668 70.4437 164.145 71.7879C163.623 73.1321 162.832 74.3501 161.823 75.3641C159.58 77.4141 156.639 78.4798 153.634 78.3306H144.472V56.5888H153.634ZM153.634 59.1065H147.125V75.93H153.634C154.763 75.994 155.894 75.8267 156.959 75.4379C158.024 75.0492 159.003 74.4468 159.838 73.6661C160.607 72.8622 161.205 71.9049 161.596 70.8538C161.987 69.8027 162.161 68.6805 162.109 67.5573C162.155 66.4314 161.974 65.3079 161.577 64.2568C161.179 63.2057 160.574 62.2497 159.799 61.4485C158.98 60.6515 158.011 60.0316 156.952 59.6258C155.893 59.2201 154.764 59.0368 153.634 59.0869V59.1065Z" fill="black" fill-opacity="0.6"/>
<path d="M169.399 78.4281V56.5886H181.654C183.429 56.4869 185.177 57.0643 186.559 58.2085C187.159 58.7738 187.629 59.4675 187.936 60.2402C188.242 61.0128 188.379 61.8452 188.334 62.6779C188.369 64.1621 187.872 65.6079 186.937 66.7437C186.002 67.8794 184.693 68.6268 183.257 68.8453L188.601 78.4476H185.662L180.317 68.8843H172.053V78.4476L169.399 78.4281ZM172.053 66.3276H181.482C182.574 66.4066 183.658 66.081 184.536 65.4103C184.893 65.0721 185.171 64.6562 185.349 64.1934C185.527 63.7306 185.602 63.2326 185.566 62.7365C185.594 62.2411 185.516 61.7456 185.338 61.284C185.16 60.8224 184.886 60.4058 184.536 60.0626C183.716 59.3771 182.672 59.0353 181.615 59.1063H172.072L172.053 66.3276Z" fill="black" fill-opacity="0.6"/>
<path d="M193.187 78.4293V56.5898H209.984V59.1075H195.859V65.5091H204.41V68.0268H195.859V75.8335H210.881V78.3512L193.187 78.4293Z" fill="black" fill-opacity="0.6"/>
<path d="M212.157 78.4293L220.861 67.4413L212.272 56.5898H215.517L222.579 65.3334L229.565 56.5898H232.772L224.163 67.3242L233.001 78.4293H229.546L222.445 69.5101L215.268 78.5074L212.157 78.4293Z" fill="black" fill-opacity="0.6"/>
</svg>
