<svg width="148" height="50" viewBox="0 0 148 50" fill="none" xmlns="http://www.w3.org/2000/svg">
<path d="M0 50C0 31.3077 0 21.9615 4.01924 15C6.65229 10.4394 10.4394 6.65229 15 4.01924C21.9615 0 31.3077 0 50 0H148C148 18.6923 148 28.0385 143.981 35C141.348 39.5606 137.561 43.3477 133 45.9808C126.038 50 116.692 50 98 50H0Z" fill="#FD0037"/>
<path d="M30.8022 33.1641C29.1058 33.1641 27.6614 32.7686 26.4689 31.9776C25.2933 31.1866 24.4703 30.1033 24 28.7277L26.4941 27.2317C27.1996 29.2608 28.6608 30.2753 30.8778 30.2753C31.9695 30.2753 32.7841 30.0604 33.3215 29.6305C33.8758 29.1834 34.1529 28.6074 34.1529 27.9023C34.1529 27.163 33.859 26.6041 33.2711 26.2258C32.6833 25.8303 31.642 25.4004 30.1472 24.9362C29.3074 24.6782 28.6272 24.4375 28.1065 24.214C27.5859 23.9904 27.0316 23.6809 26.4438 23.2854C25.8727 22.8727 25.4444 22.3655 25.1589 21.7636C24.8734 21.1618 24.7306 20.4568 24.7306 19.6486C24.7306 18.0495 25.2849 16.7856 26.3934 15.8571C27.5019 14.9113 28.8371 14.4385 30.3991 14.4385C31.8099 14.4385 33.0444 14.791 34.1025 15.496C35.1606 16.201 35.9752 17.1725 36.5463 18.4106L34.1025 19.855C33.3635 18.1698 32.129 17.3273 30.3991 17.3273C29.5593 17.3273 28.8875 17.5336 28.3836 17.9463C27.8798 18.3418 27.6278 18.8834 27.6278 19.5713C27.6278 20.2419 27.8798 20.7749 28.3836 21.1704C28.9043 21.5487 29.8365 21.9528 31.1801 22.3827C31.8519 22.6062 32.339 22.7782 32.6413 22.8985C32.9604 23.0017 33.3971 23.1737 33.9514 23.4144C34.5224 23.6551 34.9507 23.8959 35.2362 24.1366C35.5217 24.3773 35.8241 24.6782 36.1432 25.0393C36.4791 25.4004 36.7142 25.8131 36.8486 26.2774C36.983 26.7417 37.0501 27.2661 37.0501 27.8508C37.0501 29.4843 36.4707 30.7825 35.3118 31.7455C34.1697 32.6912 32.6665 33.1641 30.8022 33.1641Z" fill="white"/>
<path d="M41.8558 27.567C42.0573 28.5472 42.5192 29.3038 43.2414 29.8368C43.9636 30.3527 44.8454 30.6106 45.8867 30.6106C47.3311 30.6106 48.4144 30.0775 49.1366 29.0114L51.3789 30.3527C50.136 32.227 48.2969 33.1641 45.8615 33.1641C43.8125 33.1641 42.1581 32.5279 40.8984 31.2554C39.6388 29.9658 39.0089 28.3408 39.0089 26.3806C39.0089 24.4547 39.6304 22.8469 40.8732 21.5573C42.1161 20.2505 43.7117 19.597 45.66 19.597C47.5075 19.597 49.0191 20.2591 50.1948 21.5831C51.3872 22.9071 51.9835 24.5149 51.9835 26.4064C51.9835 26.6987 51.9499 27.0856 51.8827 27.567H41.8558ZM41.8306 25.2973H49.2374C49.0527 24.2484 48.6244 23.4574 47.9526 22.9243C47.2975 22.3913 46.5249 22.1247 45.6348 22.1247C44.627 22.1247 43.7873 22.4085 43.1154 22.9759C42.4436 23.5434 42.0153 24.3171 41.8306 25.2973Z" fill="white"/>
<path d="M60.2495 33.1641C58.402 33.1641 56.8316 32.5107 55.5383 31.2038C54.2451 29.897 53.5984 28.2892 53.5984 26.3806C53.5984 24.4719 54.2451 22.8641 55.5383 21.5573C56.8316 20.2505 58.402 19.597 60.2495 19.597C62.1138 19.597 63.6842 20.2505 64.9606 21.5573C66.2539 22.8641 66.9005 24.4719 66.9005 26.3806C66.9005 28.2892 66.2539 29.897 64.9606 31.2038C63.6842 32.5107 62.1138 33.1641 60.2495 33.1641ZM57.453 29.2952C58.2088 30.0689 59.141 30.4558 60.2495 30.4558C61.358 30.4558 62.2901 30.0689 63.0459 29.2952C63.8017 28.5214 64.1796 27.5498 64.1796 26.3806C64.1796 25.2113 63.8017 24.2398 63.0459 23.466C62.2901 22.6922 61.358 22.3053 60.2495 22.3053C59.141 22.3053 58.2088 22.6922 57.453 23.466C56.6972 24.2398 56.3193 25.2113 56.3193 26.3806C56.3193 27.5498 56.6972 28.5214 57.453 29.2952Z" fill="white"/>
<path d="M76.4905 19.597C78.2204 19.597 79.6984 20.2505 80.9245 21.5573C82.1506 22.8641 82.7636 24.4719 82.7636 26.3806C82.7636 28.272 82.1506 29.8798 80.9245 31.2038C79.6984 32.5107 78.2204 33.1641 76.4905 33.1641C74.5758 33.1641 73.1062 32.4333 72.0817 30.9717V32.8288H69.3608V14.7738H72.0817V21.7636C73.1062 20.3192 74.5758 19.597 76.4905 19.597ZM73.2154 29.3467C73.9712 30.1205 74.9201 30.5074 76.0622 30.5074C77.2043 30.5074 78.1533 30.1205 78.9091 29.3467C79.6649 28.5558 80.0428 27.567 80.0428 26.3806C80.0428 25.1941 79.6649 24.214 78.9091 23.4402C78.1533 22.6492 77.2043 22.2537 76.0622 22.2537C74.9201 22.2537 73.9712 22.6492 73.2154 23.4402C72.4596 24.214 72.0817 25.1941 72.0817 26.3806C72.0817 27.567 72.4596 28.5558 73.2154 29.3467Z" fill="white"/>
<path d="M87.7993 17.482C87.4634 17.8259 87.0603 17.9979 86.5901 17.9979C86.1198 17.9979 85.7083 17.8259 85.3556 17.482C85.0197 17.1209 84.8517 16.6997 84.8517 16.2182C84.8517 15.7367 85.0197 15.324 85.3556 14.9801C85.6915 14.619 86.103 14.4385 86.5901 14.4385C87.0771 14.4385 87.4886 14.619 87.8245 14.9801C88.1604 15.324 88.3284 15.7367 88.3284 16.2182C88.3284 16.6997 88.1521 17.1209 87.7993 17.482ZM85.2296 32.8288V19.9324H87.9505V32.8288H85.2296Z" fill="white"/>
<path d="M91.1097 32.8288V14H93.8306V32.8288H91.1097Z" fill="white"/>
<path d="M99.5595 17.482C99.2236 17.8259 98.8205 17.9979 98.3502 17.9979C97.88 17.9979 97.4685 17.8259 97.1158 17.482C96.7798 17.1209 96.6119 16.6997 96.6119 16.2182C96.6119 15.7367 96.7798 15.324 97.1158 14.9801C97.4517 14.619 97.8632 14.4385 98.3502 14.4385C98.8373 14.4385 99.2488 14.619 99.5847 14.9801C99.9206 15.324 100.089 15.7367 100.089 16.2182C100.089 16.6997 99.9122 17.1209 99.5595 17.482ZM96.9898 32.8288V19.9324H99.7107V32.8288H96.9898Z" fill="white"/>
<path d="M109.899 22.6148H106.775V28.8051C106.775 29.3382 106.892 29.725 107.128 29.9658C107.363 30.1893 107.707 30.3183 108.16 30.3527C108.631 30.3699 109.21 30.3613 109.899 30.3269V32.8288C107.816 33.0867 106.321 32.9062 105.414 32.2871C104.507 31.6509 104.054 30.4902 104.054 28.8051V22.6148H101.736V19.9324H104.054V17.1467L106.775 16.3214V19.9324H109.899V22.6148Z" fill="white"/>
<path d="M121.103 19.9324H124L119.163 33.2415C117.954 36.5773 115.905 38.1593 113.016 37.9874V35.3823C113.872 35.4339 114.561 35.2447 115.082 34.8148C115.602 34.4021 116.031 33.7487 116.366 32.8546L116.492 32.5966L111.151 19.9324H114.124L117.878 29.2952L121.103 19.9324Z" fill="white"/>
</svg>
