<svg width="300" height="135" viewBox="0 0 300 135" fill="none" xmlns="http://www.w3.org/2000/svg">
<path d="M156.872 54.6935C155.168 54.8436 153.834 48.9168 153.834 48.9168L152.945 49.2169C152.945 49.2169 155.019 54.7685 153.686 55.5938C152.352 56.419 148.648 52.1428 148.648 52.1428L147.981 52.7429C147.981 52.7429 152.723 57.1692 155.168 63.396H155.242C157.316 61.7456 159.835 62.0456 159.835 62.0456H159.91C158.205 55.8939 160.28 49.2169 160.28 49.2169L159.391 49.0669C159.391 48.9168 158.502 54.5435 156.872 54.6935ZM153.241 48.2416C153.834 48.0916 154.204 47.4164 153.982 46.8162C153.76 46.2161 153.167 45.841 152.574 46.066C151.982 46.2161 151.611 46.8913 151.834 47.4914C151.982 48.0166 152.574 48.3917 153.241 48.2416ZM159.687 46.2911C159.095 46.4411 158.798 47.0413 158.946 47.6415C159.095 48.2416 159.761 48.5417 160.28 48.3917C160.873 48.2416 161.169 47.6415 161.021 47.0413C160.873 46.4411 160.28 46.066 159.687 46.2911ZM148.129 50.7174C147.981 50.1172 147.314 49.8171 146.795 49.9671C146.203 50.1172 145.906 50.7174 146.054 51.3175C146.203 51.9177 146.795 52.2178 147.388 52.0678C147.981 51.8427 148.277 51.2425 148.129 50.7174Z" fill="black" fill-opacity="0.6"/>
<path d="M221.48 66.9098H220.665V66.5329H222.666V66.9098H221.851V69.0209H221.406L221.48 66.9098ZM223.11 66.5329H223.555L224.296 67.7392L225.037 66.5329H225.481V69.0209H225.111V67.2114L224.37 68.4177L223.629 67.2868V69.0209H223.185V66.5329H223.11ZM114.936 88.1711C110.12 88.1711 107.305 84.0244 107.305 77.5405C107.305 77.1635 107.305 76.7865 107.305 76.4096H125.828C125.606 69.9256 121.16 66.0805 114.862 66.0805C108.565 66.0805 103.452 70.6796 103.452 77.5405C103.452 83.7982 107.527 89.0005 114.936 89.0005C119.901 88.9251 124.05 86.0601 125.606 81.461L124.272 81.0086C123.235 85.4569 119.678 88.1711 114.936 88.1711ZM114.936 66.8344C119.604 66.8344 121.975 70.0764 122.049 75.5048H107.379C107.972 70.0764 110.565 66.8344 114.936 66.8344ZM160.281 87.568V66.5329H152.797V67.513H156.65V87.568H152.797V88.5481H164.356V87.568H160.281ZM101.081 67.7392C101.081 61.3306 95.6726 58.1641 88.9302 58.1641H71.4446V59.0688H76.7792V87.4926H71V88.4727H87.5966V87.4926H80.7801V59.0688H89.0043C93.3757 59.0688 97.0062 60.9537 97.0062 67.7392C97.0062 73.0922 94.2648 76.8619 89.7452 76.8619C86.337 76.8619 83.892 75.0525 83.8179 75.0525L83.077 76.4096C83.2251 76.485 85.7443 77.6913 89.2266 77.6913C95.5985 77.7667 101.081 74.2985 101.081 67.7392ZM144.869 65.7789C141.906 65.7789 138.201 67.9654 136.645 72.489H136.497V66.5329H129.31V67.513H133.163V87.568H129.31V88.5481H141.535V87.568H136.719V78.0682C136.793 70.2272 141.239 66.7591 144.647 66.6083C146.129 66.5329 147.389 67.0606 148.13 68.1915V68.2669C146.351 67.9654 145.24 69.3979 145.24 70.755C145.24 72.3383 146.351 73.3184 147.759 73.3184C148.945 73.3184 150.426 72.3383 150.426 70.378C150.278 67.5884 147.759 65.7789 144.869 65.7789ZM193.251 87.568V73.8461C193.251 68.2669 190.065 66.0051 185.842 66.0051C180.656 66.0051 176.951 69.6994 175.321 73.3938H175.247V66.5329H168.06V67.513H171.913V87.568H168.06V88.5481H179.47V87.568H175.395C175.395 87.568 175.395 78.8976 175.395 77.9929C175.395 73.4692 179.248 67.3622 184.435 67.136C188.287 66.9852 189.695 69.6994 189.695 73.3184V87.4926H185.694V88.4727H197.178V87.4926L193.251 87.568ZM224.889 82.9689C224.889 82.9689 222.592 86.5124 220.814 86.6632C219.332 86.7386 219.258 85.5323 219.258 82.1396L219.332 73.0922C219.332 67.513 215.405 65.6281 211.108 65.6281C205.551 65.6281 202.068 68.2669 201.92 70.755C201.846 72.1121 202.883 73.243 204.291 73.3184C205.402 73.3938 207.107 72.7152 207.107 70.6796C207.107 69.624 206.44 68.5685 205.254 68.2669V68.1915C205.254 68.1915 207.181 66.5329 210.515 66.5329C214.442 66.5329 215.849 69.1717 215.849 72.6398V75.4294C203.032 74.2231 200.364 79.8777 200.364 82.6673C200.364 84.4014 200.809 88.7743 207.551 88.5481C210.589 88.4727 214.071 86.437 215.775 81.838H215.924C215.924 81.838 215.849 83.4967 215.849 84.0998C215.775 86.6632 217.035 88.1711 219.258 88.1711C221.258 88.1711 223.11 87.4926 226 83.7228L224.889 82.9689ZM207.848 87.4172C205.18 87.4172 204.143 85.0799 204.069 82.8181C203.847 77.0881 208.737 75.354 215.701 76.4096C215.553 82.7427 212.071 87.4172 207.848 87.4172Z" fill="black" fill-opacity="0.6"/>
</svg>
