<svg width="300" height="135" viewBox="0 0 300 135" fill="none" xmlns="http://www.w3.org/2000/svg">
<path d="M128.334 63.2982H120.08L119.14 65.4369C118.704 66.3535 118.503 67.1682 118.503 67.8811C118.503 68.5941 118.771 69.2051 119.275 69.6464C119.778 70.0878 120.449 70.3254 121.221 70.3254V71.5136H109.98V70.3254C110.853 70.2575 111.692 69.918 112.497 69.273C113.302 68.628 114.074 67.5077 114.879 65.8443L124.878 45.0342H131.153L141.755 68.0509C142.124 68.8656 142.494 69.4088 142.896 69.7143C143.299 70.0199 143.769 70.2236 144.339 70.3593V71.5475H129.072V70.3593C130.179 70.3593 130.75 69.9859 130.75 69.2391C130.75 68.9335 130.616 68.5262 130.381 67.949L128.334 63.2982ZM127.361 60.9558L124.274 53.8267L121.154 60.9558H127.361ZM169.806 45.7131L170.276 53.0459H168.497C168.296 52.2651 167.927 51.4843 167.323 50.7374C166.719 49.9906 165.813 49.3456 164.605 48.8363C163.397 48.3271 161.887 48.0895 160.075 48.0895H158.8V67.1682C158.8 69.307 159.438 70.3933 160.746 70.3933H162.29V71.5815H144.976V70.3933H145.882C147.191 70.3933 147.828 69.3409 147.828 67.1682V50.0924C147.828 47.9537 147.191 46.9013 145.882 46.9013H144.976V45.7131H169.806ZM188.327 63.2982H180.073L179.134 65.4369C178.697 66.3535 178.496 67.1682 178.496 67.8811C178.496 68.5941 178.765 69.2051 179.268 69.6464C179.771 70.0878 180.442 70.3254 181.214 70.3254V71.5136H170.007V70.3254C170.879 70.2575 171.718 69.918 172.524 69.273C173.329 68.628 174.101 67.5077 174.906 65.8443L184.905 45.0342H191.179L201.782 68.0509C202.151 68.8656 202.52 69.4088 202.923 69.7143C203.325 70.0199 203.795 70.2236 204.366 70.3593V71.5475H189.099V70.3593C190.206 70.3593 190.777 69.9859 190.777 69.2391C190.777 68.9335 190.642 68.5262 190.407 67.949L188.327 63.2982ZM187.321 60.9558L184.234 53.8267L181.113 60.9558H187.321ZM210.372 71.5136V70.3254H211.647C212.62 70.3254 213.224 70.0538 213.492 69.5446C213.76 69.0354 213.895 68.2206 213.895 67.1003V48.0555H213.257C211.11 48.0555 209.365 48.5308 208.023 49.4814C206.681 50.4319 205.842 51.6201 205.473 53.0459H203.695L204.097 45.7131H234.597L235 53.0459H233.221C232.986 52.0954 232.55 51.2806 231.879 50.5337C231.208 49.7869 230.336 49.1758 229.229 48.7345C228.121 48.2932 226.88 48.0555 225.403 48.0555H224.766V67.1343C224.766 68.3225 224.9 69.1372 225.202 69.6464C225.504 70.1217 226.142 70.3593 227.115 70.3593H228.255V71.5475H210.372V71.5136Z" fill="black" fill-opacity="0.6"/>
<path d="M120.583 87.1642L121.925 87.7753C121.724 88.8616 121.355 89.6764 120.885 90.1856C120.415 90.6948 119.778 91.0003 119.04 91.0003C118.134 91.0003 117.362 90.559 116.758 89.6424C116.154 88.7598 115.886 87.5037 115.886 85.9421C115.886 84.2786 116.188 83.0226 116.792 82.106C117.396 81.1894 118.167 80.748 119.14 80.748C119.979 80.748 120.684 81.0875 121.221 81.8344C121.523 82.2418 121.758 82.8528 121.925 83.6676L120.55 84.1428C120.483 83.6336 120.281 83.1923 120.046 82.9207C119.778 82.6491 119.476 82.4794 119.107 82.4794C118.604 82.4794 118.167 82.751 117.865 83.2602C117.53 83.8034 117.396 84.6521 117.396 85.8063C117.396 87.0624 117.563 87.945 117.865 88.4882C118.167 88.9974 118.604 89.3029 119.107 89.3029C119.476 89.3029 119.811 89.1332 120.08 88.7937C120.281 88.4203 120.449 87.8771 120.583 87.1642ZM123.167 80.8838H124.475V87.4697L127.294 80.8838H128.703V90.8306H127.394V84.3465L124.576 90.8306H123.167V80.8838ZM134.541 87.1642L135.883 87.7753C135.682 88.8616 135.313 89.6764 134.843 90.1856C134.374 90.6948 133.736 91.0003 132.998 91.0003C132.092 91.0003 131.32 90.559 130.716 89.6424C130.112 88.7598 129.844 87.5037 129.844 85.9421C129.844 84.2786 130.146 83.0226 130.75 82.106C131.354 81.1894 132.125 80.748 133.099 80.748C133.937 80.748 134.642 81.0875 135.179 81.8344C135.481 82.2418 135.716 82.8528 135.883 83.6676L134.508 84.1428C134.441 83.6336 134.239 83.1923 134.004 82.9207C133.736 82.6491 133.434 82.4794 133.065 82.4794C132.562 82.4794 132.125 82.751 131.824 83.2602C131.488 83.8034 131.354 84.6521 131.354 85.8063C131.354 87.0624 131.522 87.945 131.824 88.4882C132.125 88.9974 132.562 89.3029 133.065 89.3029C133.434 89.3029 133.77 89.1332 134.038 88.7937C134.206 88.4203 134.407 87.8771 134.541 87.1642ZM138.4 90.8306V82.5812H136.353V80.9178H141.856V82.5812H139.809V90.8306H138.4ZM142.762 90.8306V80.9178H147.895V82.5812H144.171V84.7879H147.661V86.4513H144.171V89.1671H148.03V90.8306H142.762ZM149.204 90.8306V80.9178H151.284L152.526 87.7074L153.767 80.9178H155.881V90.8306H154.606V83.0226L153.23 90.8306H151.888L150.513 83.0226V90.8306H149.204ZM157.324 80.8838H158.733V84.8218H160.612C161.115 84.8218 161.518 84.9236 161.887 85.1273C162.256 85.2971 162.525 85.6365 162.76 86.1458C162.994 86.655 163.129 87.1982 163.129 87.8771C163.129 88.5561 162.994 89.0992 162.76 89.6085C162.525 90.1177 162.256 90.4232 161.954 90.593C161.652 90.7287 161.216 90.8306 160.646 90.8306H157.391V80.8838H157.324ZM158.733 89.1332H160.109C160.545 89.1332 160.847 89.0992 161.015 89.0313C161.183 88.9634 161.35 88.8277 161.485 88.624C161.619 88.4203 161.686 88.1487 161.686 87.8092C161.686 87.3679 161.585 87.0624 161.35 86.8247C161.115 86.621 160.746 86.4852 160.176 86.4852H158.767V89.1332H158.733ZM163.9 80.8838H165.31V90.8306H163.9V80.8838ZM168.766 80.8838H170.343L171.953 86.0439L173.329 80.8838H174.772L172.423 88.4203C172.154 89.235 171.92 89.8461 171.651 90.2874C171.383 90.7287 171.047 90.9324 170.611 90.9324C170.208 90.9324 169.873 90.8985 169.638 90.8306V89.3369C169.839 89.3708 170.007 89.3708 170.175 89.3708C170.51 89.3708 170.745 89.269 170.879 89.0992C171.014 88.9295 171.148 88.5561 171.282 88.0129L168.766 80.8838ZM175.51 80.8838H181.012V90.8306H179.603V82.5473H176.885V90.8306H175.476V80.8838H175.51ZM182.455 90.8306V80.9178H184.703C185.542 80.9178 186.113 80.9517 186.381 81.0536C186.784 81.1894 187.119 81.4949 187.388 82.0041C187.656 82.5133 187.79 83.1583 187.79 83.9392C187.79 84.5502 187.723 85.0594 187.555 85.4668C187.388 85.8742 187.22 86.2137 186.951 86.4513C186.717 86.6889 186.482 86.8587 186.213 86.9266C185.878 87.0284 185.408 87.0624 184.77 87.0624H183.865V90.8306H182.455ZM183.831 82.5812V85.3989H184.603C185.173 85.3989 185.542 85.331 185.71 85.2631C185.911 85.1613 186.045 84.9915 186.146 84.7539C186.247 84.5502 186.314 84.2786 186.314 84.007C186.314 83.6336 186.247 83.3281 186.079 83.0905C185.945 82.8868 185.743 82.717 185.509 82.6491C185.341 82.6152 185.005 82.5812 184.502 82.5812H183.831ZM194.3 90.8306H192.79L192.186 88.5561H189.401L188.83 90.8306H187.354L190.038 80.9178H191.515L194.3 90.8306ZM191.716 86.8926L190.776 83.1923L189.837 86.8926H191.716ZM195.038 80.8838H197.823C198.359 80.8838 198.796 80.9178 199.064 80.9857C199.333 81.0536 199.567 81.1894 199.802 81.3931C200.004 81.5967 200.205 81.8683 200.339 82.2078C200.473 82.5473 200.54 82.9547 200.54 83.396C200.54 83.8373 200.44 84.2786 200.272 84.686C200.104 85.0934 199.869 85.365 199.567 85.5687C200.004 85.7384 200.306 86.0439 200.54 86.4513C200.775 86.8926 200.876 87.4018 200.876 87.945C200.876 88.3863 200.809 88.8277 200.641 89.269C200.507 89.7103 200.306 90.0158 200.037 90.2874C199.769 90.559 199.467 90.6948 199.098 90.7627C198.863 90.7966 198.292 90.7966 197.42 90.8306H195.071V80.8838H195.038ZM196.447 82.5473V84.8218H197.353C197.89 84.8218 198.225 84.8218 198.359 84.7879C198.594 84.7539 198.796 84.6521 198.93 84.4484C199.064 84.2447 199.131 84.007 199.131 83.6676C199.131 83.362 199.064 83.0905 198.963 82.9207C198.829 82.751 198.661 82.6152 198.427 82.5812C198.292 82.5473 197.89 82.5473 197.219 82.5473H196.447ZM196.447 86.4852V89.1332H197.756C198.259 89.1332 198.594 89.0992 198.729 89.0653C198.93 89.0313 199.098 88.8616 199.232 88.6579C199.366 88.4542 199.433 88.1487 199.433 87.8092C199.433 87.5037 199.366 87.2661 199.299 87.0624C199.198 86.8587 199.064 86.6889 198.863 86.621C198.661 86.5192 198.259 86.4852 197.621 86.4852H196.447ZM202.285 80.8838H207.15V90.8306H205.741V82.5812H203.661V86.8247C203.661 88.0469 203.627 88.8956 203.56 89.3708C203.493 89.8461 203.359 90.2535 203.158 90.4911C202.923 90.7627 202.587 90.8985 202.117 90.8985C201.95 90.8985 201.648 90.8645 201.212 90.7966V89.269H201.513C201.815 89.269 202.017 89.235 202.117 89.1332C202.218 88.9974 202.252 88.7258 202.252 88.2845V86.5871V80.8838H202.285ZM208.593 90.8306V80.9178H213.727V82.5812H210.002V84.7879H213.492V86.4513H210.002V89.1671H213.861V90.8306H208.593ZM215.035 90.8306V80.9178H216.445V84.8218H219.196V80.9178H220.605V90.8306H219.196V86.4852H216.445V90.8306H215.035ZM222.048 80.8838H223.357V87.4697L226.175 80.8838H227.584V90.8306H226.276V84.3465L223.457 90.8306H222.048V80.8838ZM233.154 90.8306V86.6889H232.886C232.45 86.6889 232.148 86.7908 231.946 86.9605C231.778 87.1642 231.443 87.7074 231.007 88.6579L230 90.8306H228.322L229.161 88.8956C229.497 88.1148 229.765 87.5716 229.967 87.2661C230.168 86.9605 230.403 86.6889 230.705 86.4513C230.067 86.3155 229.597 86.01 229.296 85.5008C228.994 84.9915 228.859 84.3805 228.859 83.7015C228.859 83.0905 228.96 82.5812 229.195 82.106C229.396 81.6646 229.698 81.3252 230.034 81.1554C230.369 80.9857 230.906 80.9178 231.611 80.9178H234.563V90.8306H233.154ZM233.154 82.5812H232.047C231.476 82.5812 231.141 82.6152 230.94 82.6491C230.772 82.6831 230.604 82.7849 230.503 82.9886C230.369 83.1923 230.302 83.4639 230.302 83.8034C230.302 84.1428 230.369 84.4484 230.47 84.6181C230.604 84.8218 230.738 84.9576 230.94 85.0255C231.141 85.0594 231.51 85.0934 232.08 85.0934H233.121L233.154 82.5812Z" fill="black" fill-opacity="0.6"/>
<path fill-rule="evenodd" clip-rule="evenodd" d="M68.7441 90.7619L91.057 57.5269L113.202 90.8977L68.7441 90.7619ZM74.918 87.6393L88.8761 66.6934L102.599 87.6053L74.918 87.6393Z" fill="black" fill-opacity="0.6"/>
<path d="M100.485 48.7676H100.216L82.0305 49.0731L80.7891 49.141L79.6483 49.3107L78.3397 49.5484L77.1989 49.82L76.2258 50.1255L75.5883 50.3971L74.9844 50.7026L74.2462 51.0421L73.508 51.4155L73.0047 51.755L72.3337 52.2642L71.7968 52.6716L71.3942 52.9771L70.958 53.4184L70.5218 53.8258L70.052 54.369L69.4145 55.0479L69.0455 55.5911L68.475 56.4398L68.0724 57.0848L67.6698 57.8996L67.2 58.8841L66.9316 59.6988L66.6296 60.7512L66.4283 61.3962L66.2605 62.3128L66.1599 63.3652L66.0928 64.6892L66.1599 66.2847L66.3612 67.6426L66.6967 68.8987L66.9987 69.8493L67.5691 71.1732L67.9718 72.0559L68.3744 72.7348L69.1126 73.7872L69.7501 74.568L70.2198 75.1112L70.656 75.5865L71.26 76.1296L71.8304 76.6049L72.3001 76.9783L73.2732 77.6912L74.2462 78.3023L75.4206 78.8455L76.5949 79.2528L77.6686 79.6263L78.4403 79.796L78.8094 79.9318L80.0173 80.2373L81.5608 80.475L82.4332 80.5089L84.5135 80.6786L85.2852 80.7465L88.2714 80.8144L99.9815 80.7805L98.5052 78.8115H91.2577H86.5602L82.7352 78.6078L79.5476 78.0986L77.8699 77.6912L76.4607 77.182L75.4541 76.7407L74.4475 76.1296L73.3738 75.3828L72.3001 74.5001L71.5619 73.7193L70.7231 72.7348L69.8843 71.4109L69.4145 70.4603L69.1126 69.8493L68.7435 68.8987L68.4415 67.8124L68.3073 66.9976L68.2066 66.0471L68.1395 64.9607V63.7726L68.2402 62.9578L68.3744 62.0752L68.5422 61.3962L68.7435 60.7512L68.9783 60.1401L69.2803 59.3254L69.5823 58.6464L69.9178 58.0693L70.354 57.3225L70.8909 56.6096L71.4948 55.8627L72.0317 55.2177L72.6356 54.6745L73.2396 54.1653L73.8771 53.69L74.7495 53.1808L75.1857 52.8753L75.7561 52.6037L76.3936 52.2982L77.0311 52.0605L77.8028 51.8229L78.3732 51.6532L79.3127 51.3476L80.0845 51.1779L80.9904 51.0081L81.8963 50.9402L82.97 50.8724L99.0756 50.7026L100.485 48.7676Z" fill="black" fill-opacity="0.6"/>
<path d="M102.868 45L81.4944 45.1697L79.8839 45.3395L79.1792 45.4074L78.2733 45.5432L77.6693 45.645L76.8305 45.8148L76.1594 46.0184L75.4884 46.2221L74.8509 46.4258L74.2134 46.6634L73.643 46.9011L72.9383 47.2745L72.4015 47.5121L71.8646 47.8177L71.2271 48.1911L70.7574 48.5306L69.7172 49.2095L69.2139 49.6169L68.61 50.0922L68.1402 50.5335L67.704 51.0088L67.3014 51.4162L66.8652 51.8914L66.4961 52.3328L66.1606 52.6722L65.7915 53.1815L65.3889 53.7586L64.9191 54.4375L64.55 55.0825L64.1139 55.8633L63.7448 56.6102L63.4763 57.2552L63.1744 58.0021L62.9059 58.7489L62.5369 59.971L62.3355 60.8876L62.2013 61.7363L62.1007 62.5171L62.0336 63.2979L62 63.9769V65.0632L62.0336 65.7422L62.1342 66.7606L62.2684 67.7112L62.4026 68.5938L62.5369 69.137L62.8053 70.1215L63.1744 71.1739L63.4428 71.751L63.7112 72.4299L64.2816 73.5842L64.7849 74.4668L65.4224 75.4174L66.0264 76.2321L66.7646 77.1148L67.335 77.7598L67.8718 78.269L68.4087 78.7782L68.8449 79.1856L69.4824 79.6269L70.858 80.6453L71.7304 81.1885L72.5021 81.5959L73.4081 82.0712L74.4147 82.6143L75.7568 83.2254L76.9312 83.6667L78.1055 83.9722L79.5819 84.2099L81.2931 84.4475L83.0043 84.5154H104.68L103.539 82.7501L82.7359 82.5804L81.1924 82.3427L79.951 82.207L79.0786 82.0372L78.4746 81.9014L77.5351 81.7317L77.0318 81.5619L76.3943 81.3582L75.8239 81.1546L75.22 80.9169L74.7502 80.7132L74.2805 80.5096L73.4081 80.1022L72.7706 79.6948L72.2002 79.3553L71.764 79.0837L71.2607 78.7103L70.7909 78.3369L70.3547 77.9635L69.8179 77.4882L69.4153 77.1148L68.9791 76.7074L68.4422 76.0624L67.8718 75.3834L67.2679 74.6026L66.6974 73.72L66.2277 72.9392L65.8251 72.1244L65.4895 71.4115L65.1204 70.461L64.852 69.5783L64.6843 68.9673L64.5165 68.3562L64.3823 67.7791L64.2816 67.0322L64.1474 66.1835L64.0803 65.4706L64.0467 64.588L64.1474 63.0943L64.2481 62.4153L64.3823 61.4648L64.55 60.65L64.7514 59.8353L65.0533 58.9866L65.3218 58.1379L65.6573 57.391L66.0599 56.5423L66.5632 55.6936L67.0665 54.8449L67.6034 54.132L68.006 53.5888L68.6771 52.7741L69.0126 52.3667L69.7172 51.7217L70.489 51.0088L71.1936 50.4996L71.9988 49.9225L72.9048 49.3793L73.7101 48.938L74.4482 48.6324L75.5219 48.1572L76.7298 47.7498L77.8707 47.4103L78.743 47.2406L80.2194 47.0369L81.528 46.935L83.0378 46.9011L101.66 46.8332L102.868 45Z" fill="black" fill-opacity="0.6"/>
<path d="M81.9647 52.7061L80.1863 52.9438L79.3475 53.1475L78.5758 53.419L77.9047 53.6227L77.0323 53.9622L76.4619 54.2677L75.4218 54.8448L74.8178 55.2862L74.0126 55.9312L73.3751 56.5422L72.7711 57.2891L72.0665 58.3415L71.6638 58.9526L71.2276 59.8691L70.6908 61.1931L70.4224 62.3473L70.2211 63.4337L70.1875 64.0787V65.165L70.2546 66.0816L70.3888 66.9982L70.6237 67.8809L70.9592 68.8314L71.2948 69.6122L71.6974 70.393L72.2007 71.1738L72.9724 72.2262L73.7777 73.1428L74.4823 73.7199L75.4218 74.4328L76.2942 74.9081L77.133 75.3494L78.0389 75.7228L79.4146 76.1302L80.7568 76.4357L82.5686 76.6734L84.4476 76.7413L97.4327 76.8431L96.2919 75.1457L84.4476 75.0099L82.9377 74.976L81.4614 74.8062L79.9179 74.3649L78.3409 73.8897L77.6699 73.5841L76.6633 73.041L75.6902 72.328L74.6165 71.2757L73.9119 70.3591L73.4422 69.6122L73.0731 68.8654L72.704 68.1185L72.4356 67.168L72.2007 66.1495L72.1336 65.3348V63.909L72.2678 62.9245L72.4356 62.2116L72.6033 61.4647L72.9053 60.7857L73.3751 59.7673L73.9455 58.9526L74.6501 58.036L75.6567 57.0854L76.3613 56.5083L77.6028 55.7614L79.012 55.0825L80.8239 54.6072L82.3002 54.4375L84.1121 54.3017L96.7952 54.2338L97.9695 52.5024L81.9647 52.7061Z" fill="black" fill-opacity="0.6"/>
</svg>
