<svg width="72" height="24" viewBox="0 0 72 24" fill="none" xmlns="http://www.w3.org/2000/svg">
<path d="M0 24C0 15.0277 0 10.5415 1.92923 7.2C3.1931 5.01092 5.01092 3.1931 7.2 1.92923C10.5415 0 15.0277 0 24 0H71.04C71.04 8.97231 71.04 13.4585 69.1108 16.8C67.8469 18.9891 66.0291 20.8069 63.84 22.0708C60.4985 24 56.0123 24 47.04 24H0Z" fill="#FD0037"/>
<path d="M14.7851 15.9188C13.9708 15.9188 13.2775 15.7289 12.7051 15.3493C12.1408 14.9696 11.7457 14.4496 11.52 13.7893L12.7172 13.0712C13.0558 14.0452 13.7572 14.5321 14.8213 14.5321C15.3454 14.5321 15.7364 14.429 15.9943 14.2226C16.2604 14.008 16.3934 13.7315 16.3934 13.3931C16.3934 13.0382 16.2523 12.77 15.9702 12.5884C15.688 12.3986 15.1882 12.1922 14.4706 11.9694C14.0676 11.8456 13.741 11.73 13.4911 11.6227C13.2412 11.5154 12.9752 11.3668 12.693 11.177C12.4189 10.9789 12.2133 10.7354 12.0763 10.4466C11.9392 10.1577 11.8707 9.81927 11.8707 9.43135C11.8707 8.66375 12.1367 8.0571 12.6688 7.6114C13.2009 7.15745 13.8418 6.93047 14.5916 6.93047C15.2688 6.93047 15.8613 7.09967 16.3692 7.43807C16.8771 7.77648 17.2681 8.24281 17.5422 8.83708L16.3692 9.53039C16.0145 8.72153 15.4219 8.31709 14.5916 8.31709C14.1885 8.31709 13.866 8.41614 13.6242 8.61423C13.3823 8.80406 13.2614 9.06406 13.2614 9.3942C13.2614 9.7161 13.3823 9.97196 13.6242 10.1618C13.8741 10.3434 14.3215 10.5373 14.9665 10.7437C15.2889 10.851 15.5227 10.9335 15.6678 10.9913C15.821 11.0408 16.0306 11.1234 16.2967 11.2389C16.5708 11.3545 16.7763 11.47 16.9134 11.5856C17.0504 11.7011 17.1956 11.8456 17.3487 12.0189C17.51 12.1922 17.6228 12.3903 17.6873 12.6132C17.7518 12.836 17.7841 13.0877 17.7841 13.3684C17.7841 14.1525 17.5059 14.7756 16.9497 15.2378C16.4015 15.6918 15.6799 15.9188 14.7851 15.9188Z" fill="white"/>
<path d="M20.0908 13.2322C20.1875 13.7026 20.4092 14.0658 20.7559 14.3217C21.1025 14.5693 21.5258 14.6931 22.0256 14.6931C22.7189 14.6931 23.2389 14.4372 23.5856 13.9255L24.6619 14.5693C24.0653 15.4689 23.1825 15.9188 22.0135 15.9188C21.03 15.9188 20.2359 15.6134 19.6312 15.0026C19.0266 14.3836 18.7243 13.6036 18.7243 12.6627C18.7243 11.7383 19.0226 10.9665 19.6192 10.3475C20.2157 9.72023 20.9816 9.40658 21.9168 9.40658C22.8036 9.40658 23.5292 9.72435 24.0935 10.3599C24.6659 10.9954 24.9521 11.7671 24.9521 12.6751C24.9521 12.8154 24.936 13.0011 24.9037 13.2322H20.0908ZM20.0787 12.1427H23.634C23.5453 11.6392 23.3397 11.2595 23.0172 11.0037C22.7028 10.7478 22.332 10.6199 21.9047 10.6199C21.421 10.6199 21.0179 10.7561 20.6954 11.0284C20.3729 11.3008 20.1674 11.6722 20.0787 12.1427Z" fill="white"/>
<path d="M28.9197 15.9188C28.0329 15.9188 27.2792 15.6051 26.6584 14.9778C26.0376 14.3506 25.7272 13.5788 25.7272 12.6627C25.7272 11.7465 26.0376 10.9748 26.6584 10.3475C27.2792 9.72023 28.0329 9.40658 28.9197 9.40658C29.8146 9.40658 30.5684 9.72023 31.1811 10.3475C31.8019 10.9748 32.1122 11.7465 32.1122 12.6627C32.1122 13.5788 31.8019 14.3506 31.1811 14.9778C30.5684 15.6051 29.8146 15.9188 28.9197 15.9188ZM27.5774 14.0617C27.9402 14.4331 28.3877 14.6188 28.9197 14.6188C29.4518 14.6188 29.8993 14.4331 30.262 14.0617C30.6248 13.6903 30.8062 13.2239 30.8062 12.6627C30.8062 12.1014 30.6248 11.6351 30.262 11.2637C29.8993 10.8923 29.4518 10.7065 28.9197 10.7065C28.3877 10.7065 27.9402 10.8923 27.5774 11.2637C27.2147 11.6351 27.0333 12.1014 27.0333 12.6627C27.0333 13.2239 27.2147 13.6903 27.5774 14.0617Z" fill="white"/>
<path d="M36.7154 9.40658C37.5458 9.40658 38.2553 9.72023 38.8438 10.3475C39.4323 10.9748 39.7265 11.7465 39.7265 12.6627C39.7265 13.5706 39.4323 14.3423 38.8438 14.9778C38.2553 15.6051 37.5458 15.9188 36.7154 15.9188C35.7964 15.9188 35.091 15.568 34.5992 14.8664V15.7578H33.2932V7.09142H34.5992V10.4466C35.091 9.75324 35.7964 9.40658 36.7154 9.40658ZM35.1434 14.0864C35.5062 14.4579 35.9617 14.6436 36.5099 14.6436C37.0581 14.6436 37.5136 14.4579 37.8764 14.0864C38.2391 13.7068 38.4205 13.2322 38.4205 12.6627C38.4205 12.0932 38.2391 11.6227 37.8764 11.2513C37.5136 10.8716 37.0581 10.6818 36.5099 10.6818C35.9617 10.6818 35.5062 10.8716 35.1434 11.2513C34.7806 11.6227 34.5992 12.0932 34.5992 12.6627C34.5992 13.2322 34.7806 13.7068 35.1434 14.0864Z" fill="white"/>
<path d="M42.1437 8.39138C41.9825 8.55645 41.789 8.63899 41.5632 8.63899C41.3375 8.63899 41.14 8.55645 40.9707 8.39138C40.8095 8.21805 40.7288 8.01583 40.7288 7.78473C40.7288 7.55363 40.8095 7.35554 40.9707 7.19046C41.1319 7.01713 41.3294 6.93047 41.5632 6.93047C41.797 6.93047 41.9945 7.01713 42.1558 7.19046C42.317 7.35554 42.3976 7.55363 42.3976 7.78473C42.3976 8.01583 42.313 8.21805 42.1437 8.39138ZM40.9102 15.7578V9.56753H42.2162V15.7578H40.9102Z" fill="white"/>
<path d="M43.7327 15.7578V6.72H45.0387V15.7578H43.7327Z" fill="white"/>
<path d="M47.7886 8.39138C47.6273 8.55645 47.4338 8.63899 47.2081 8.63899C46.9824 8.63899 46.7849 8.55645 46.6156 8.39138C46.4543 8.21805 46.3737 8.01583 46.3737 7.78473C46.3737 7.55363 46.4543 7.35554 46.6156 7.19046C46.7768 7.01713 46.9743 6.93047 47.2081 6.93047C47.4419 6.93047 47.6394 7.01713 47.8007 7.19046C47.9619 7.35554 48.0425 7.55363 48.0425 7.78473C48.0425 8.01583 47.9579 8.21805 47.7886 8.39138ZM46.5551 15.7578V9.56753H47.8611V15.7578H46.5551Z" fill="white"/>
<path d="M52.7514 10.8551H51.2519V13.8264C51.2519 14.0823 51.3084 14.268 51.4212 14.3836C51.5341 14.4909 51.6994 14.5528 51.917 14.5693C52.1428 14.5775 52.4209 14.5734 52.7514 14.5569V15.7578C51.7518 15.8816 51.0343 15.795 50.5989 15.4978C50.1636 15.1924 49.9459 14.6353 49.9459 13.8264V10.8551H48.8334V9.56753H49.9459V8.23043L51.2519 7.83425V9.56753H52.7514V10.8551Z" fill="white"/>
<path d="M58.1293 9.56753H59.52L57.1982 15.9559C56.6177 17.5571 55.6342 18.3165 54.2475 18.2339V16.9835C54.6587 17.0083 54.9892 16.9175 55.2392 16.7111C55.4891 16.513 55.6946 16.1994 55.8559 15.7702L55.9163 15.6464L53.3527 9.56753H54.7796L56.5815 14.0617L58.1293 9.56753Z" fill="white"/>
</svg>
