<svg width="40" height="40" viewBox="0 0 40 40" fill="none" xmlns="http://www.w3.org/2000/svg">
<path d="M28.7067 12.4004L34.6634 2.87012H20.3351L18.3555 6.04618L28.7067 12.4004Z" fill="url(#paint0_linear)"/>
<path opacity="0.15" d="M18.3574 6.04617L19.3713 4.41602L28.7088 12.4004L18.3574 6.04629V6.04617Z" fill="black"/>
<path d="M31.8567 29.6785V15.3515L28.7656 13.4194L22.2656 23.6864L31.8567 29.6788V29.6785Z" fill="url(#paint1_linear)"/>
<path opacity="0.15" d="M22.2657 23.6856L23.8713 24.6882L28.7656 13.4194L22.2656 23.6858L22.2657 23.6856Z" fill="black"/>
<path d="M8.78125 0.00292969V14.3303L12.0964 16.2623L28.7055 12.3985L8.78125 0.00292969Z" fill="url(#paint2_linear)"/>
<path d="M12.0269 17.3547L6.07031 26.7235H20.3979L28.7688 13.4194L12.0269 17.3547Z" fill="url(#paint3_linear)"/>
<path d="M4.00061 38.8613H4.83368L5.25015 33.7737H4.39702V32.7919H6.68799L8.25481 36.7691C8.37358 37.1162 8.42317 37.3541 8.42317 37.3541H8.44299C8.44299 37.3541 8.49271 37.1162 8.62169 36.7691L10.1785 32.7919H12.4691V33.7737H11.6265L12.0329 38.8612H12.8659V39.8332H9.97966V38.8613H10.7631L10.5054 35.3115C10.4857 35.0632 10.5353 34.6568 10.5353 34.6568H10.5054C10.5054 34.6568 10.4259 35.0431 10.3369 35.2816L8.98807 38.5241H7.87736L6.52874 35.2815C6.43927 35.0431 6.37023 34.6567 6.37023 34.6567H6.33035C6.33035 34.6567 6.38019 35.0626 6.36038 35.3115L6.10267 38.8612H6.89598V39.8332H4V38.8613H4.00061ZM17.0034 32.6729C19.0858 32.6729 20.6525 34.2498 20.6525 36.2634C20.6525 38.3361 19.0857 39.9524 17.0034 39.9524C14.9204 39.9524 13.3536 38.3362 13.3536 36.2634C13.3536 34.2495 14.9204 32.6729 17.0034 32.6729ZM17.0034 38.8116C18.2727 38.8116 19.3143 37.7111 19.3143 36.263C19.3143 34.8743 18.273 33.8129 17.0034 33.8129C15.7337 33.8129 14.6925 34.8746 14.6925 36.263C14.6925 37.7113 15.7341 38.8116 17.0034 38.8116ZM21.2986 38.8613H22.1409V33.7737H21.2985V32.7919H24.3429C24.909 32.7919 25.3549 32.8219 25.811 32.9601C27.1793 33.3667 28.092 34.5769 28.092 36.3121C28.092 37.9783 27.2487 39.1783 25.9103 39.6248C25.4337 39.7929 24.9384 39.8324 24.3527 39.8324H21.2986V38.8613ZM24.2935 38.7922C24.7394 38.7922 25.0967 38.7524 25.4437 38.613C26.2473 38.2856 26.753 37.4627 26.753 36.3124C26.753 35.122 26.2176 34.3094 25.3941 33.9918C25.0374 33.853 24.7098 33.8336 24.2935 33.8336H23.4402V38.7922H24.2935ZM28.8385 38.8613H29.4637L31.2386 36.263L29.5127 33.7737H28.8876V32.7919H31.5461V33.7737H30.8519L31.8238 35.2319C31.9534 35.3899 32.0225 35.5294 32.0225 35.5294H32.0419C32.0419 35.5389 32.1107 35.3998 32.2303 35.2319L33.1721 33.7737H32.4977V32.7919H35.0564V33.7737H34.4414L32.6565 36.3618L34.4115 38.8612H35.0364V39.8332H32.3684V38.8613H33.0626L32.0808 37.3837C31.9522 37.2155 31.8827 37.0766 31.8827 37.0766H31.863C31.8433 37.0766 31.7834 37.2158 31.6748 37.3837L30.7327 38.8613H31.4166V39.8332H28.8389L28.8385 38.8613Z" fill="black"/>
<defs>
<linearGradient id="paint0_linear" x1="32.2345" y1="8.18619" x2="27.0956" y2="-1.61203" gradientUnits="userSpaceOnUse">
<stop stop-color="#80C3E6"/>
<stop offset="1" stop-color="#3380C2"/>
</linearGradient>
<linearGradient id="paint1_linear" x1="34.0984" y1="24.1664" x2="25.408" y2="22.1695" gradientUnits="userSpaceOnUse">
<stop stop-color="#F38649"/>
<stop offset="0.1849" stop-color="#F28147"/>
<stop offset="0.4091" stop-color="#EF7242"/>
<stop offset="0.6537" stop-color="#EA5A3A"/>
<stop offset="0.911" stop-color="#E4382E"/>
<stop offset="1" stop-color="#E12A29"/>
</linearGradient>
<linearGradient id="paint2_linear" x1="7.9255" y1="12.9605" x2="20.746" y2="0.930878" gradientUnits="userSpaceOnUse">
<stop stop-color="#42AB4A"/>
<stop offset="1" stop-color="#ADD155"/>
</linearGradient>
<linearGradient id="paint3_linear" x1="11.2433" y1="29.9558" x2="15.8442" y2="8.52309" gradientUnits="userSpaceOnUse">
<stop stop-color="#42AB4A"/>
<stop offset="1" stop-color="#ADD155"/>
</linearGradient>
</defs>
</svg>
